<svg width="512" height="512" viewBox="0 0 512 512" fill="none" xmlns="http://www.w3.org/2000/svg">
<g clip-path="url(#clip0_0_3)">
<path d="M351.979 0C324.683 1.888 292.779 19.36 274.187 42.112C257.227 62.752 243.275 93.408 248.715 123.2C278.539 124.128 309.355 106.24 327.211 83.104C343.915 61.568 356.555 31.104 351.979 0Z" fill="black"/>
<path d="M459.849 171.775C433.641 138.911 396.81 119.839 362.026 119.839C316.106 119.839 296.682 141.823 264.778 141.823C231.883 141.823 206.891 119.903 167.179 119.903C128.171 119.903 86.6355 143.743 60.2997 184.511C23.2759 241.919 29.6118 349.854 89.6115 441.789C111.083 474.685 139.755 511.677 177.259 511.997C210.635 512.317 220.043 490.589 265.258 490.365C310.474 490.109 319.05 512.285 352.362 511.933C389.898 511.645 420.138 470.653 441.609 437.757C457.001 414.174 462.729 402.302 474.665 375.678C387.85 342.622 373.93 219.167 459.849 171.775Z" fill="black"/>
</g>
<defs>
<clipPath id="clip0_0_3">
<rect width="512" height="512" fill="white"/>
</clipPath>
</defs>
</svg>
