<svg width="512" height="512" viewBox="0 0 512 512" fill="none" xmlns="http://www.w3.org/2000/svg">
<g clip-path="url(#clip0_1_34)">
<path d="M454.965 319.41L507.506 266.868C510.384 263.983 512 260.074 512 255.999C512 251.925 510.384 248.016 507.506 245.131L454.966 192.59C452.607 190.292 449.438 189.015 446.145 189.036C442.851 189.058 439.699 190.375 437.37 192.704C435.041 195.033 433.723 198.185 433.701 201.478C433.679 204.771 434.955 207.941 437.253 210.3L470.426 243.473H12.524C9.20243 243.473 6.0169 244.792 3.66819 247.141C1.31949 249.49 0 252.675 0 255.997C0 259.319 1.31949 262.504 3.66819 264.853C6.0169 267.202 9.20243 268.521 12.524 268.521H470.424L437.253 301.7C434.934 304.055 433.64 307.231 433.652 310.536C433.665 313.841 434.983 317.007 437.32 319.345C439.657 321.682 442.824 323 446.129 323.013C449.434 323.026 452.61 321.732 454.965 319.413V319.41Z" fill="black"/>
</g>
<defs>
<clipPath id="clip0_1_34">
<rect width="512" height="512" fill="white"/>
</clipPath>
</defs>
</svg>
