<svg id="vuesax_bulk_shopping-cart" data-name="vuesax/bulk/shopping-cart" xmlns="http://www.w3.org/2000/svg" width="36.962" height="36.962" viewBox="0 0 36.962 36.962">
  <g id="shopping-cart" transform="translate(0 0)">
    <path id="Vector" d="M0,0H36.962V36.962H0Z" fill="none" opacity="0"/>
    <path id="Vector-2" data-name="Vector" d="M5.39,2.7A2.7,2.7,0,1,1,2.7,0,2.7,2.7,0,0,1,5.39,2.7Z" transform="translate(22.331 29.261)"/>
    <path id="Vector-3" data-name="Vector" d="M5.39,2.7A2.7,2.7,0,1,1,2.7,0,2.7,2.7,0,0,1,5.39,2.7Z" transform="translate(10.01 29.261)"/>
    <path id="Vector-4" data-name="Vector" d="M5.529,4.143,5.221,7.916A1.221,1.221,0,0,0,6.453,9.24H30.031A1.229,1.229,0,0,0,31.264,8.1a4.554,4.554,0,0,0-4.6-4.944H7.762a4.2,4.2,0,0,0-.939-1.864A4.035,4.035,0,0,0,3.881,0H1.155A1.163,1.163,0,0,0,0,1.155,1.163,1.163,0,0,0,1.155,2.31h2.68A1.69,1.69,0,0,1,5.529,4.143Z" transform="translate(1.925 1.925)"/>
    <path id="Vector-5" data-name="Vector" d="M25.427,0H1.8A1.239,1.239,0,0,0,.57,1.124l-.554,6.7A4.509,4.509,0,0,0,4.5,12.706H21.623a4.616,4.616,0,0,0,4.512-4.2l.508-7.192A1.2,1.2,0,0,0,25.427,0Z" transform="translate(6.16 13.476)"/>
  </g>
</svg>
