<svg width="508" height="506" viewBox="0 0 508 506" fill="none" xmlns="http://www.w3.org/2000/svg">
<g clip-path="url(#clip0_1_31)">
<path d="M21.3333 15.3333C15.6754 15.3333 10.2492 17.5809 6.24839 21.5817C2.24761 25.5825 0 31.0087 0 36.6667C0 42.3246 2.24761 47.7508 6.24839 51.7516C10.2492 55.7524 15.6754 58 21.3333 58H59.3067C62.4076 58.0054 65.4285 58.9843 67.9433 60.7986C70.4581 62.6129 72.3397 65.171 73.3227 68.112L143.659 279.163C146.795 288.549 147.179 298.619 144.789 308.219L139.008 331.408C130.496 365.413 156.971 399.333 192 399.333H448C453.658 399.333 459.084 397.086 463.085 393.085C467.086 389.084 469.333 383.658 469.333 378C469.333 372.342 467.086 366.916 463.085 362.915C459.084 358.914 453.658 356.667 448 356.667H192C183.68 356.667 178.347 349.84 180.373 341.797L184.747 324.347C185.483 321.395 187.185 318.774 189.581 316.899C191.977 315.025 194.931 314.005 197.973 314H426.667C431.15 314.006 435.52 312.599 439.158 309.979C442.796 307.36 445.517 303.661 446.933 299.408L503.787 128.741C504.855 125.534 505.146 122.119 504.635 118.778C504.124 115.436 502.827 112.264 500.85 109.522C498.873 106.78 496.272 104.548 493.263 103.008C490.254 101.468 486.922 100.666 483.541 100.667H139.84C136.735 100.666 133.71 99.6889 131.191 97.8743C128.672 96.0597 126.787 93.4991 125.803 90.5547L105.579 29.9253C104.163 25.6756 101.446 21.9792 97.8123 19.3602C94.1785 16.7411 89.8126 15.3323 85.3333 15.3333H21.3333ZM170.667 420.667C159.351 420.667 148.498 425.162 140.497 433.163C132.495 441.165 128 452.017 128 463.333C128 474.649 132.495 485.502 140.497 493.503C148.498 501.505 159.351 506 170.667 506C181.983 506 192.835 501.505 200.837 493.503C208.838 485.502 213.333 474.649 213.333 463.333C213.333 452.017 208.838 441.165 200.837 433.163C192.835 425.162 181.983 420.667 170.667 420.667ZM426.667 420.667C415.351 420.667 404.498 425.162 396.497 433.163C388.495 441.165 384 452.017 384 463.333C384 474.649 388.495 485.502 396.497 493.503C404.498 501.505 415.351 506 426.667 506C437.983 506 448.835 501.505 456.837 493.503C464.838 485.502 469.333 474.649 469.333 463.333C469.333 452.017 464.838 441.165 456.837 433.163C448.835 425.162 437.983 420.667 426.667 420.667Z" fill="black"/>
</g>
<defs>
<clipPath id="clip0_1_31">
<rect width="512" height="512" fill="white" transform="translate(0 -6)"/>
</clipPath>
</defs>
</svg>
