<svg width="512" height="512" viewBox="0 0 512 512" fill="none" xmlns="http://www.w3.org/2000/svg">
<g clip-path="url(#clip0_5_46)">
<path d="M507.147 484.145L374.957 354.067C409.573 316.458 430.843 266.718 430.843 211.985C430.826 94.9017 334.387 1.52588e-05 215.415 1.52588e-05C96.4435 1.52588e-05 0.0050354 94.9017 0.0050354 211.985C0.0050354 329.069 96.4435 423.971 215.415 423.971C266.82 423.971 313.966 406.191 351 376.632L483.702 507.222C490.168 513.592 500.666 513.592 507.132 507.222C508.67 505.72 509.892 503.926 510.727 501.945C511.562 499.964 511.993 497.837 511.995 495.687C511.996 493.537 511.568 491.409 510.735 489.427C509.903 487.445 508.683 485.649 507.147 484.145ZM215.415 391.356C114.752 391.356 33.149 311.049 33.149 211.985C33.149 112.922 114.752 32.6152 215.415 32.6152C316.08 32.6152 397.682 112.922 397.682 211.985C397.682 311.049 316.08 391.356 215.415 391.356Z" fill="black"/>
</g>
<defs>
<clipPath id="clip0_5_46">
<rect width="512" height="512" fill="white"/>
</clipPath>
</defs>
</svg>
