<svg width="512" height="512" viewBox="0 0 512 512" fill="none" xmlns="http://www.w3.org/2000/svg">
<path d="M256 272C237.013 272 218.452 266.37 202.665 255.821C186.878 245.272 174.574 230.279 167.308 212.738C160.042 195.196 158.14 175.894 161.845 157.271C165.549 138.649 174.692 121.544 188.118 108.118C201.544 94.6919 218.649 85.5488 237.271 81.8446C255.894 78.1404 275.196 80.0415 292.738 87.3076C310.279 94.5736 325.272 106.878 335.821 122.665C346.37 138.452 352 157.013 352 176C352 201.461 341.886 225.879 323.882 243.882C305.879 261.886 281.461 272 256 272ZM256 112C243.342 112 230.968 115.754 220.444 122.786C209.919 129.818 201.716 139.814 196.872 151.508C192.028 163.203 190.76 176.071 193.23 188.486C195.699 200.901 201.795 212.304 210.745 221.255C219.696 230.205 231.099 236.301 243.514 238.77C255.929 241.24 268.797 239.972 280.492 235.128C292.186 230.284 302.182 222.081 309.214 211.556C316.246 201.032 320 188.658 320 176C320 159.026 313.257 142.747 301.255 130.745C289.253 118.743 272.974 112 256 112Z" fill="black"/>
<path d="M256 496C220.519 495.976 185.485 488.086 153.419 472.897C121.354 457.708 93.0549 435.599 70.56 408.16L62.24 397.92L70.56 387.84C93.0739 360.437 121.381 338.364 153.446 323.21C185.51 308.055 220.535 300.195 256 300.195C291.465 300.195 326.49 308.055 358.554 323.21C390.619 338.364 418.926 360.437 441.44 387.84L449.76 397.92L441.44 408.16C418.945 435.599 390.646 457.708 358.581 472.897C326.515 488.086 291.481 495.976 256 496ZM104.16 398.08C123.62 418.912 147.154 435.522 173.302 446.878C199.45 458.234 227.653 464.094 256.16 464.094C284.667 464.094 312.87 458.234 339.018 446.878C365.166 435.522 388.7 418.912 408.16 398.08C388.7 377.248 365.166 360.638 339.018 349.282C312.87 337.926 284.667 332.066 256.16 332.066C227.653 332.066 199.45 337.926 173.302 349.282C147.154 360.638 123.62 377.248 104.16 398.08Z" fill="black"/>
<path d="M256 496C201.484 496.036 148.58 477.511 105.995 443.474C63.4102 409.437 33.6825 361.915 21.7046 308.731C9.72665 255.547 16.2124 199.87 40.0943 150.863C63.9761 101.856 103.831 62.4406 153.099 39.103C202.368 15.7654 258.113 9.89674 311.161 22.463C364.209 35.0293 411.399 65.2816 444.962 108.241C478.526 151.2 496.464 204.306 495.823 258.818C495.183 313.331 476.003 366.001 441.44 408.16C418.945 435.599 390.646 457.708 358.581 472.897C326.515 488.086 291.481 495.976 256 496ZM256 48C214.861 48 174.647 60.199 140.441 83.0543C106.236 105.91 79.5761 138.395 63.8331 176.402C48.09 214.409 43.971 256.231 51.9967 296.579C60.0224 336.927 79.8325 373.989 108.922 403.078C138.011 432.168 175.073 451.978 215.421 460.003C255.769 468.029 297.591 463.91 335.598 448.167C373.605 432.424 406.09 405.764 428.946 371.559C451.801 337.353 464 297.139 464 256C464 200.835 442.086 147.929 403.078 108.922C364.071 69.9142 311.165 48 256 48Z" fill="black"/>
<path d="M82.88 398.08C82.88 398.08 244 578.08 408 416L429.12 398.08C429.12 398.08 292.16 256 153.12 341.28L82.88 398.08Z" fill="black"/>
<path d="M256 256C300.183 256 336 220.183 336 176C336 131.817 300.183 96 256 96C211.817 96 176 131.817 176 176C176 220.183 211.817 256 256 256Z" fill="black"/>
</svg>
