<svg width="512" height="512" viewBox="0 0 512 512" fill="none" xmlns="http://www.w3.org/2000/svg">
<path d="M36.72 475.28C38.206 476.768 39.9706 477.948 41.913 478.753C43.8553 479.558 45.9374 479.973 48.04 479.973C50.1427 479.973 52.2247 479.558 54.167 478.753C56.1094 477.948 57.874 476.768 59.36 475.28L256 278.64L452.72 475.28C455.722 478.282 459.794 479.969 464.04 479.969C468.286 479.969 472.358 478.282 475.36 475.28C478.362 472.278 480.049 468.206 480.049 463.96C480.049 459.714 478.362 455.642 475.36 452.64L278.64 256L475.28 59.28C478.282 56.2778 479.969 52.2058 479.969 47.96C479.969 43.7142 478.282 39.6423 475.28 36.64C472.278 33.6378 468.206 31.9511 463.96 31.9511C459.714 31.9511 455.642 33.6378 452.64 36.64L256 233.36L59.28 36.72C56.2192 34.0988 52.282 32.7291 48.2551 32.8846C44.2283 33.0402 40.4085 34.7095 37.559 37.559C34.7095 40.4085 33.0402 44.2283 32.8846 48.2552C32.7291 52.282 34.0988 56.2192 36.72 59.28L233.36 256L36.72 452.72C33.74 455.718 32.0673 459.773 32.0673 464C32.0673 468.227 33.74 472.282 36.72 475.28Z" fill="black"/>
</svg>
