<svg width="496" height="404" viewBox="0 0 496 404" fill="none" xmlns="http://www.w3.org/2000/svg">
<g clip-path="url(#clip0_1_8)">
<path d="M455.419 38.0931C450.06 21.8672 434.353 9.07668 414.435 4.70744C378.048 -3.40195 232.494 -3.40195 232.494 -3.40195C232.494 -3.40195 86.9462 -3.40195 50.5586 4.4003C31.0235 8.7648 14.9345 21.8701 9.57609 38.0931C0 67.729 0 129.191 0 129.191C0 129.191 0 190.962 9.57609 220.288C14.9396 236.512 30.6406 249.303 50.5615 253.672C87.3291 261.783 232.5 261.783 232.5 261.783C232.5 261.783 378.048 261.783 414.435 253.981C434.356 249.614 450.06 236.824 455.424 220.6C464.997 190.962 464.997 129.503 464.997 129.503C464.997 129.503 465.38 67.7285 455.419 38.0931ZM186.152 185.971V72.4096L307.188 129.19L186.152 185.971Z" fill="black"/>
</g>
<defs>
<clipPath id="clip0_1_8">
<rect width="496" height="404" fill="white"/>
</clipPath>
</defs>
</svg>
