<svg id="Group_2095" data-name="Group 2095" xmlns="http://www.w3.org/2000/svg" width="334.293" height="91.149" viewBox="0 0 334.293 91.149">
  <g id="Group_2093" data-name="Group 2093" transform="translate(83.242 21.008)">
    <path id="Path_3" data-name="Path 3" d="M251.466,324.608q-5.441-5.574-5.8-14.837l-.09-3.867.09-3.866q.358-9.172,5.845-14.792t15.286-5.62q9.8,0,15.286,5.62t5.845,14.792q.089.99.09,3.866t-.09,3.867q-.36,9.262-5.8,14.837T266.8,330.183Q256.9,330.183,251.466,324.608Zm24.278-4.945q3.281-3.6,3.552-10.341.088-.9.09-3.418t-.09-3.417q-.27-6.744-3.552-10.341a11.513,11.513,0,0,0-8.947-3.6,11.654,11.654,0,0,0-8.992,3.6q-3.328,3.6-3.507,10.341l-.09,3.417.09,3.418q.179,6.743,3.507,10.341a11.649,11.649,0,0,0,8.992,3.6A11.508,11.508,0,0,0,275.744,319.662Z" transform="translate(-245.576 -264.721)" fill="#fff"/>
    <path id="Path_4" data-name="Path 4" d="M361.511,325.633q-4.676-5.53-4.676-14.7V285.574a2,2,0,0,1,2.068-2.068h4.5a2,2,0,0,1,2.068,2.068v24.908q0,13.4,11.689,13.4a11.725,11.725,0,0,0,8.992-3.552q3.326-3.552,3.327-9.846V285.574a2,2,0,0,1,2.068-2.068h4.5a1.867,1.867,0,0,1,1.439.584,2.105,2.105,0,0,1,.54,1.484V328.2a2.1,2.1,0,0,1-.54,1.484,1.862,1.862,0,0,1-1.439.584h-4.226a2,2,0,0,1-2.068-2.068V324.24a16.546,16.546,0,0,1-6.115,5.17,20.221,20.221,0,0,1-8.9,1.753Q366.186,331.163,361.511,325.633Z" transform="translate(-303.604 -265.702)" fill="#fff"/>
    <path id="Path_5" data-name="Path 5" d="M469.471,295.814V272.075h-7.013a2,2,0,0,1-2.068-2.068V266.95a2,2,0,0,1,2.068-2.068h7.013V249.865a2,2,0,0,1,2.068-2.068h4.226a2,2,0,0,1,2.068,2.068v15.017h11.15a2,2,0,0,1,2.068,2.068v3.057a2,2,0,0,1-2.068,2.068h-11.15v23.109q0,4.5,1.529,6.789t5.036,2.293h5.485a2,2,0,0,1,2.068,2.068v3.238a2,2,0,0,1-2.068,2.068h-6.2Q469.47,311.64,469.471,295.814Z" transform="translate(-357.613 -247.077)" fill="#fff"/>
    <path id="Path_6" data-name="Path 6" d="M544.983,329.68a2,2,0,0,1-.585-1.484V285.574a2,2,0,0,1,2.068-2.068h4.316a2,2,0,0,1,2.068,2.068V328.2a2,2,0,0,1-2.068,2.068h-4.316A2.005,2.005,0,0,1,544.983,329.68Z" transform="translate(-401.429 -265.702)" fill="#fff"/>
    <path id="Path_7" data-name="Path 7" d="M591.445,324.742Q586,319.3,585.645,309.5l-.09-3.6.09-3.6q.358-9.8,5.8-15.241t15.062-5.44a23.558,23.558,0,0,1,10.97,2.338,17.112,17.112,0,0,1,6.7,5.755,13.939,13.939,0,0,1,2.383,6.834,1.579,1.579,0,0,1-.54,1.439,2.271,2.271,0,0,1-1.529.54h-4.316a2.122,2.122,0,0,1-1.349-.36,3.678,3.678,0,0,1-.9-1.439,11.78,11.78,0,0,0-4.316-6.159,12.471,12.471,0,0,0-7.013-1.843,11.629,11.629,0,0,0-8.857,3.461q-3.283,3.463-3.551,10.565l-.09,3.238.09,3.057q.269,7.2,3.506,10.611t8.9,3.417a12.456,12.456,0,0,0,7.013-1.844,11.772,11.772,0,0,0,4.316-6.159,4.218,4.218,0,0,1,.9-1.484,1.961,1.961,0,0,1,1.349-.4h4.316a2.17,2.17,0,0,1,1.529.584,1.7,1.7,0,0,1,.54,1.484,14.084,14.084,0,0,1-2.383,6.789,17,17,0,0,1-6.654,5.8,23.5,23.5,0,0,1-11.015,2.338Q596.883,330.183,591.445,324.742Z" transform="translate(-422.894 -264.721)" fill="#fff"/>
    <path id="Path_8" data-name="Path 8" d="M694.848,328.384a15.134,15.134,0,0,1-5.979-4.9,11.6,11.6,0,0,1-2.2-6.879,11.849,11.849,0,0,1,4.9-9.756q4.9-3.822,13.264-4.991l13.4-1.888v-2.607q0-9.172-10.52-9.172a11.138,11.138,0,0,0-10.251,5.575,2.659,2.659,0,0,1-.674,1.169,1.633,1.633,0,0,1-1.124.36h-3.867a2,2,0,0,1-1.979-1.978,9.545,9.545,0,0,1,2.023-4.9,15.706,15.706,0,0,1,5.98-4.766,22.185,22.185,0,0,1,9.981-2.023q10.07,0,14.477,4.721a16.542,16.542,0,0,1,4.406,11.734v29.134a2,2,0,0,1-2.068,2.068h-4.136a2,2,0,0,1-2.068-2.068v-3.867a15.525,15.525,0,0,1-5.755,4.856,20.668,20.668,0,0,1-9.622,1.978A18.784,18.784,0,0,1,694.848,328.384Zm19.647-8.767q3.731-3.82,3.732-11.015v-2.518L707.8,307.613q-6.385.9-9.621,3.012a6.323,6.323,0,0,0-.27,10.88,12.551,12.551,0,0,0,7.014,1.933A12.8,12.8,0,0,0,714.5,319.617Z" transform="translate(-475.629 -264.721)" fill="#fff"/>
    <path id="Path_2963" data-name="Path 2963" d="M543.479,254.791a2.007,2.007,0,0,1-.585-1.484v-4.855a2.165,2.165,0,0,1,.585-1.529,1.938,1.938,0,0,1,1.484-.629h5.665a2.148,2.148,0,0,1,2.158,2.158v4.855a1.94,1.94,0,0,1-.629,1.484,2.164,2.164,0,0,1-1.529.584h-5.665A2.006,2.006,0,0,1,543.479,254.791Z" transform="translate(-400.645 -246.293)" fill="#2e6df7"/>
  </g>
  <g id="Group_2094" data-name="Group 2094" transform="translate(0)">
    <path id="Path_9" data-name="Path 9" d="M90.125,220.919h20.151q7.6,0,11.868,3.334t4.267,10v.266a12.19,12.19,0,0,1-4.067,9.6,13.778,13.778,0,0,1-6.026,2.99l13.968,13.968a31.492,31.492,0,0,0,11.394-9.157q5.532-7.132,5.534-18.468v-.266q0-14.533-9.267-22.669t-25.936-8.134H71.59Z" transform="translate(-71.59 -202.384)" fill="#2e6df7"/>
    <path id="Path_10" data-name="Path 10" d="M71.59,206.875V217.05l78.851,78.793h10.175Z" transform="translate(-71.59 -204.726)" fill="#2e6df7"/>
    <path id="Path_11" data-name="Path 11" d="M71.59,251.311v8.366l59.29,59.341h8.366Z" transform="translate(-71.59 -227.902)" fill="#2e6df7"/>
    <path id="Path_12" data-name="Path 12" d="M71.59,291.885V298.5l41.68,41.68h6.615Z" transform="translate(-71.59 -249.064)" fill="#2e6df7"/>
    <path id="Path_13" data-name="Path 13" d="M71.59,326.2v5.339l26.63,26.573h5.342Z" transform="translate(-71.59 -266.959)" fill="#2e6df7"/>
  </g>
</svg>
