<svg xmlns="http://www.w3.org/2000/svg" width="168.707" height="46" viewBox="0 0 168.707 46"><defs><style>.a{fill:#2e6df7;}</style></defs><g transform="translate(-71.59 -202.384)"><g transform="translate(71.59 202.384)"><g transform="translate(42.01 10.965)"><path d="M248.548,303.317a10.9,10.9,0,0,1-2.927-7.488l-.045-1.951.045-1.951a10.873,10.873,0,0,1,2.95-7.465,11.91,11.91,0,0,1,15.429,0,10.879,10.879,0,0,1,2.95,7.465q.045.5.045,1.951t-.045,1.951a10.9,10.9,0,0,1-2.927,7.488q-2.746,2.814-7.737,2.814T248.548,303.317Zm12.252-2.5a7.976,7.976,0,0,0,1.793-5.219q.045-.453.045-1.725t-.045-1.724a7.977,7.977,0,0,0-1.793-5.219,5.81,5.81,0,0,0-4.515-1.815,5.881,5.881,0,0,0-4.538,1.815,7.731,7.731,0,0,0-1.77,5.219l-.045,1.724.045,1.725a7.73,7.73,0,0,0,1.77,5.219,5.879,5.879,0,0,0,4.538,1.815A5.808,5.808,0,0,0,260.8,300.822Z" transform="translate(-245.576 -273.458)"/><path d="M359.195,304.766a11.108,11.108,0,0,1-2.36-7.42v-12.8a1.009,1.009,0,0,1,1.044-1.044h2.269a1.009,1.009,0,0,1,1.044,1.044v12.57q0,6.762,5.9,6.762a5.917,5.917,0,0,0,4.538-1.793,6.985,6.985,0,0,0,1.679-4.969V284.55a1.009,1.009,0,0,1,1.044-1.044h2.269a.942.942,0,0,1,.726.295,1.062,1.062,0,0,1,.272.749v21.51a1.06,1.06,0,0,1-.272.749.94.94,0,0,1-.726.295h-2.133a1.009,1.009,0,0,1-1.044-1.044v-2a8.35,8.35,0,0,1-3.086,2.609,10.2,10.2,0,0,1-4.493.885A8.254,8.254,0,0,1,359.195,304.766Z" transform="translate(-329.971 -274.884)"/><path d="M464.972,272.029v-11.98h-3.539a1.009,1.009,0,0,1-1.044-1.044v-1.543a1.009,1.009,0,0,1,1.044-1.044h3.539v-7.579a1.009,1.009,0,0,1,1.044-1.044h2.133a1.009,1.009,0,0,1,1.044,1.044v7.579h5.627a1.009,1.009,0,0,1,1.044,1.044v1.543a1.01,1.01,0,0,1-1.044,1.044h-5.627v11.663a6.2,6.2,0,0,0,.771,3.426,2.827,2.827,0,0,0,2.541,1.157h2.768a1.009,1.009,0,0,1,1.044,1.044v1.634a1.009,1.009,0,0,1-1.044,1.044h-3.131Q464.972,280.016,464.972,272.029Z" transform="translate(-408.521 -247.797)"/><path d="M544.693,306.808a1.011,1.011,0,0,1-.3-.749V284.55a1.009,1.009,0,0,1,1.044-1.044h2.178a1.009,1.009,0,0,1,1.044,1.044v21.51a1.009,1.009,0,0,1-1.044,1.044h-2.178A1.012,1.012,0,0,1,544.693,306.808Z" transform="translate(-472.246 -274.884)"/><path d="M588.527,303.385a11,11,0,0,1-2.927-7.692l-.045-1.815.045-1.815a11,11,0,0,1,2.927-7.692,10.273,10.273,0,0,1,7.6-2.745,11.889,11.889,0,0,1,5.536,1.18,8.636,8.636,0,0,1,3.381,2.9,7.034,7.034,0,0,1,1.2,3.449.8.8,0,0,1-.272.726,1.146,1.146,0,0,1-.771.272h-2.178a1.071,1.071,0,0,1-.681-.182,1.856,1.856,0,0,1-.454-.726,5.945,5.945,0,0,0-2.178-3.108,6.294,6.294,0,0,0-3.539-.93,5.869,5.869,0,0,0-4.47,1.747,7.967,7.967,0,0,0-1.792,5.332l-.045,1.634.045,1.543q.136,3.631,1.77,5.355a5.891,5.891,0,0,0,4.493,1.724,6.286,6.286,0,0,0,3.539-.931,5.941,5.941,0,0,0,2.178-3.108,2.128,2.128,0,0,1,.454-.749.99.99,0,0,1,.681-.2H605.2a1.1,1.1,0,0,1,.771.295.856.856,0,0,1,.272.749,7.108,7.108,0,0,1-1.2,3.426,8.578,8.578,0,0,1-3.358,2.927,11.859,11.859,0,0,1-5.559,1.18A10.271,10.271,0,0,1,588.527,303.385Z" transform="translate(-503.465 -273.458)"/><path d="M690.795,305.223a7.638,7.638,0,0,1-3.018-2.473,5.856,5.856,0,0,1-1.112-3.472,5.98,5.98,0,0,1,2.473-4.923,13.836,13.836,0,0,1,6.694-2.519l6.761-.953v-1.316q0-4.629-5.309-4.629a5.621,5.621,0,0,0-5.173,2.813,1.342,1.342,0,0,1-.34.59.824.824,0,0,1-.567.182h-1.951a1.007,1.007,0,0,1-1-1,4.817,4.817,0,0,1,1.021-2.473,7.926,7.926,0,0,1,3.018-2.405,11.2,11.2,0,0,1,5.037-1.021q5.082,0,7.306,2.382a8.348,8.348,0,0,1,2.224,5.922v14.7a1.009,1.009,0,0,1-1.044,1.044h-2.087a1.009,1.009,0,0,1-1.044-1.044v-1.951a7.835,7.835,0,0,1-2.9,2.451,10.43,10.43,0,0,1-4.856,1A9.479,9.479,0,0,1,690.795,305.223Zm9.915-4.424a7.634,7.634,0,0,0,1.883-5.559v-1.271l-5.264.771a12.16,12.16,0,0,0-4.856,1.52,3.191,3.191,0,0,0-.136,5.491,6.334,6.334,0,0,0,3.54.976A6.46,6.46,0,0,0,700.71,300.8Z" transform="translate(-580.162 -273.458)"/></g><g transform="translate(0)"><path class="a" d="M80.944,211.738h10.17a9.516,9.516,0,0,1,5.989,1.682,6.012,6.012,0,0,1,2.154,5.047v.134a6.152,6.152,0,0,1-2.053,4.845,6.954,6.954,0,0,1-3.041,1.509l7.049,7.049a15.893,15.893,0,0,0,5.75-4.621,14.773,14.773,0,0,0,2.793-9.32v-.134q0-7.334-4.677-11.44t-13.089-4.105H71.59Z" transform="translate(-71.59 -202.384)"/><path class="a" d="M71.59,206.875v5.135l39.794,39.764h5.135Z" transform="translate(-71.59 -205.791)"/><path class="a" d="M71.59,251.311v4.222l29.922,29.948h4.222Z" transform="translate(-71.59 -239.498)"/><path class="a" d="M71.59,291.885v3.339l21.035,21.035h3.339Z" transform="translate(-71.59 -270.275)"/><path class="a" d="M71.59,326.2v2.695L85.029,342.3h2.7Z" transform="translate(-71.59 -296.301)"/></g></g><path class="a" d="M543.189,250.581a1.013,1.013,0,0,1-.3-.749v-2.45a1.093,1.093,0,0,1,.3-.772.978.978,0,0,1,.749-.318H546.8a1.084,1.084,0,0,1,1.089,1.089v2.45a.979.979,0,0,1-.317.749,1.092,1.092,0,0,1-.772.295h-2.859A1.012,1.012,0,0,1,543.189,250.581Z" transform="translate(-357.505 -33.307)"/></g></svg>